<svg xmlns="http://www.w3.org/2000/svg" width="243.47266" height="243.47998" viewBox="0 0 243.47266 243.47998"><defs><style>.a{font-size:15.6px;font-family:KronaOne-Regular, Krona One;}</style></defs><text class="a" transform="matrix(0.9137, -0.40639, 0.40639, 0.9137, 71.36328, 25.9209)">C</text><text class="a" transform="matrix(0.96035, -0.2788, 0.2788, 0.96035, 84.09277, 20.18408)">O</text><text class="a" transform="matrix(0.99089, -0.13469, 0.13469, 0.99089, 98.70313, 15.86719)">M</text><text class="a" transform="translate(115.00879 13.62549) rotate(0.9289)">P</text><text class="a" transform="matrix(0.99057, 0.13703, -0.13703, 0.99057, 128.95801, 13.69629)">O</text><text class="a" transform="translate(144.05762 15.75781) rotate(15.98848)">S</text><text class="a" transform="translate(158.73633 20.20752) rotate(21.41054)">I</text><text class="a" transform="translate(163.44824 21.87354) rotate(26.1414)">T</text><text class="a" transform="matrix(0.8585, 0.51281, -0.51281, 0.8585, 174.82031, 27.62207)">I</text><text class="a" transform="translate(179.19434 29.93652) rotate(36.21241)">O</text><text class="a" transform="translate(191.50586 38.92188) rotate(44.24241)">N</text><text class="a" transform="translate(202.43945 49.5332) rotate(52.26675)">S</text><text class="a" transform="translate(211.64258 61.80518) rotate(57.62671)"> </text><text class="a" transform="translate(214.37109 65.97852) rotate(61.31429)">•</text><text class="a" transform="matrix(0.42221, 0.9065, -0.9065, 0.42221, 218.61035, 73.84766)"> </text><text class="a" transform="translate(220.89258 78.24902) rotate(70.08853)">U</text><text class="a" transform="translate(225.7002 91.32031) rotate(77.87518)">S</text><text class="a" transform="translate(228.83984 106.23682) rotate(85.26419)">E</text><text class="a" transform="translate(229.94141 118.82959) rotate(92.19943)">R</text><text class="a" transform="translate(229.21777 132.84229) rotate(97.19964)"> </text><text class="a" transform="translate(228.58691 137.85986) rotate(99.89108)">I</text><text class="a" transform="matrix(-0.26384, 0.96457, -0.96457, -0.26384, 227.98926, 142.78076)">N</text><text class="a" transform="translate(223.89746 157.49463) rotate(112.7503)">T</text><text class="a" transform="translate(219.01855 169.17627) rotate(119.48822)">E</text><text class="a" transform="matrix(-0.59498, 0.80374, -0.80374, -0.59498, 212.85254, 180.20264)">R</text><text class="a" transform="translate(204.53613 191.40186) rotate(133.52766)">F</text><text class="a" transform="translate(195.86035 200.61963) rotate(140.52202)">A</text><text class="a" transform="translate(185.16211 209.46533) rotate(147.87461)">C</text><text class="a" transform="translate(173.30469 216.88721) rotate(154.9503)">E</text><text class="a" transform="translate(161.69824 222.146) rotate(159.66872)"> </text><text class="a" transform="translate(157.03711 223.9458) rotate(163.38857)">•</text><text class="a" transform="matrix(-0.97481, 0.22302, -0.22302, -0.97481, 148.46094, 226.44385)"> </text><text class="a" transform="matrix(-0.99065, 0.13645, -0.13645, -0.99065, 143.66895, 227.75439)">A</text><text class="a" transform="translate(129.96387 229.61377) rotate(179.07156)">N</text><text class="a" transform="matrix(-0.99603, -0.08906, 0.08906, -0.99603, 114.59668, 229.53857)">I</text><text class="a" transform="translate(109.63477 229.40088) rotate(-169.17625)">M</text><text class="a" transform="translate(93.44824 226.23975) rotate(-161.08283)">A</text><text class="a" transform="matrix(-0.8988, -0.43836, 0.43836, -0.8988, 80.29541, 221.71143)">T</text><text class="a" transform="translate(68.92627 215.99951) rotate(-149.30076)">I</text><text class="a" transform="translate(64.51172 213.67432) rotate(-143.91754)">O</text><text class="a" transform="matrix(-0.71808, -0.69596, 0.69596, -0.71808, 52.19434, 204.72998)">N</text><text class="a" transform="translate(41.34619 193.896) rotate(-130.55878)"> </text><text class="a" transform="translate(38.03613 190.1333) rotate(-126.87717)">•</text><text class="a" transform="matrix(-0.54745, -0.83684, 0.83684, -0.54745, 32.72314, 182.95654)"> </text><text class="a" transform="translate(29.80713 178.96631) rotate(-117.81744)">S</text><text class="a" transform="matrix(-0.34834, -0.93737, 0.93737, -0.34834, 22.74023, 165.43799)">T</text><text class="a" transform="translate(18.24463 153.65088) rotate(-102.95335)">O</text><text class="a" transform="matrix(-0.09083, -0.99587, 0.99587, -0.09083, 14.84766, 138.77979)">R</text><text class="a" transform="translate(13.60107 124.89893) rotate(-88.25371)">Y</text><text class="a" transform="translate(13.97168 112.17041) rotate(-81.56013)">T</text><text class="a" transform="matrix(0.26178, -0.96513, 0.96513, 0.26178, 15.80713, 99.66211)">E</text><text class="a" transform="translate(19.15039 87.41504) rotate(-68.39122)">L</text><text class="a" transform="translate(23.32324 76.83789) rotate(-62.33443)">L</text><text class="a" transform="translate(28.75244 66.73145) rotate(-57.96114)">I</text><text class="a" transform="matrix(0.60756, -0.79428, 0.79428, 0.60756, 31.17578, 62.37988)">N</text><text class="a" transform="translate(40.3999 50.27734) rotate(-44.57307)">G</text><text class="a" transform="translate(51.48291 39.68018) rotate(-39.2327)"> </text><text class="a" transform="translate(55.32471 36.45557) rotate(-35.54672)">•</text><text class="a" transform="matrix(0.84928, -0.52794, 0.52794, 0.84928, 62.61182, 31.31885)"> </text></svg>